<?xml version="1.0" encoding="UTF-8" standalone="no"?>
<!DOCTYPE svg PUBLIC "-//W3C//DTD SVG 1.1//EN" "http://www.w3.org/Graphics/SVG/1.1/DTD/svg11.dtd">
<svg version="1.1" xmlns="http://www.w3.org/2000/svg" xmlns:xlink="http://www.w3.org/1999/xlink" preserveAspectRatio="xMidYMid meet" viewBox="0 0 640 640" width="750" height="750"><defs><path d="M70 56.35L570 56.35L570 556.35L70 556.35L70 56.35Z" id="bxYCq5Y7c"></path><path d="M500.14 465.05C500.14 492.71 484.91 515.16 466.14 515.16C447.38 515.16 432.14 492.71 432.14 465.05C432.14 437.4 447.38 414.95 466.14 414.95C484.91 414.95 500.14 437.4 500.14 465.05Z" id="ax1m8Utgw"></path><path d="M353.54 294.56C353.54 322.16 331.14 344.56 303.54 344.56C275.95 344.56 253.54 322.16 253.54 294.56C253.54 266.97 275.95 244.56 303.54 244.56C331.14 244.56 353.54 266.97 353.54 294.56Z" id="b3TAmLLdiK"></path><path d="M201.68 294.56C201.68 322.16 179.28 344.56 151.68 344.56C124.09 344.56 101.68 322.16 101.68 294.56C101.68 266.97 124.09 244.56 151.68 244.56C179.28 244.56 201.68 266.97 201.68 294.56Z" id="e61UUxUH3i"></path><path d="M201.68 133.23C201.68 160.82 179.28 183.23 151.68 183.23C124.09 183.23 101.68 160.82 101.68 133.23C101.68 105.63 124.09 83.23 151.68 83.23C179.28 83.23 201.68 105.63 201.68 133.23Z" id="a3ADEE3tw"></path><path d="M353.54 133.23C353.54 160.82 331.14 183.23 303.54 183.23C275.95 183.23 253.54 160.82 253.54 133.23C253.54 105.63 275.95 83.23 303.54 83.23C331.14 83.23 353.54 105.63 353.54 133.23Z" id="aoaWh7gQ6"></path><path d="M519.09 133.23C519.09 160.82 496.68 183.23 469.09 183.23C441.49 183.23 419.09 160.82 419.09 133.23C419.09 105.63 441.49 83.23 469.09 83.23C496.68 83.23 519.09 105.63 519.09 133.23Z" id="a27wYUwmt"></path><path d="M525.09 294.56C525.09 322.16 502.68 344.56 475.09 344.56C447.49 344.56 425.09 322.16 425.09 294.56C425.09 266.97 447.49 244.56 475.09 244.56C502.68 244.56 525.09 266.97 525.09 294.56Z" id="a2qeA1Syng"></path><path d="M201.68 464.95C201.68 492.54 179.28 514.95 151.68 514.95C124.09 514.95 101.68 492.54 101.68 464.95C101.68 437.35 124.09 414.95 151.68 414.95C179.28 414.95 201.68 437.35 201.68 464.95Z" id="aFFybFQpQ"></path><path d="M353.54 469.44C353.54 497.03 331.14 519.44 303.54 519.44C275.95 519.44 253.54 497.03 253.54 469.44C253.54 441.84 275.95 419.44 303.54 419.44C331.14 419.44 353.54 441.84 353.54 469.44Z" id="blL8X81bm"></path></defs><g><g><g><use xlink:href="#bxYCq5Y7c" opacity="1" fill="#caa472" fill-opacity="1"></use><g><use xlink:href="#bxYCq5Y7c" opacity="1" fill-opacity="0" stroke="#000000" stroke-width="5" stroke-opacity="1"></use></g></g><g><use xlink:href="#ax1m8Utgw" opacity="1" fill="#ffffff" fill-opacity="1"></use><g><use xlink:href="#ax1m8Utgw" opacity="1" fill-opacity="0" stroke="#000000" stroke-width="5" stroke-opacity="1"></use></g></g><g><g><use xlink:href="#b3TAmLLdiK" opacity="1" fill-opacity="0" stroke="#000000" stroke-width="3" stroke-opacity="1"></use></g></g><g><g><use xlink:href="#e61UUxUH3i" opacity="1" fill-opacity="0" stroke="#000000" stroke-width="3" stroke-opacity="1"></use></g></g><g><g><use xlink:href="#a3ADEE3tw" opacity="1" fill-opacity="0" stroke="#000000" stroke-width="3" stroke-opacity="1"></use></g></g><g><g><use xlink:href="#aoaWh7gQ6" opacity="1" fill-opacity="0" stroke="#000000" stroke-width="3" stroke-opacity="1"></use></g></g><g><g><use xlink:href="#a27wYUwmt" opacity="1" fill-opacity="0" stroke="#000000" stroke-width="3" stroke-opacity="1"></use></g></g><g><g><use xlink:href="#a2qeA1Syng" opacity="1" fill-opacity="0" stroke="#000000" stroke-width="3" stroke-opacity="1"></use></g></g><g><g><use xlink:href="#aFFybFQpQ" opacity="1" fill-opacity="0" stroke="#000000" stroke-width="3" stroke-opacity="1"></use></g></g><g><g><use xlink:href="#blL8X81bm" opacity="1" fill-opacity="0" stroke="#000000" stroke-width="3" stroke-opacity="1"></use></g></g></g></g></svg>